G04 #@! TF.GenerationSoftware,KiCad,Pcbnew,9.0.7*
G04 #@! TF.CreationDate,2026-02-11T18:03:55+01:00*
G04 #@! TF.ProjectId,Schematic.kicad_pcb_2,53636865-6d61-4746-9963-2e6b69636164,rev?*
G04 #@! TF.SameCoordinates,Original*
G04 #@! TF.FileFunction,Copper,L1,Top*
G04 #@! TF.FilePolarity,Positive*
%FSLAX46Y46*%
G04 Gerber Fmt 4.6, Leading zero omitted, Abs format (unit mm)*
G04 Created by KiCad (PCBNEW 9.0.7) date 2026-02-11 18:03:55*
%MOMM*%
%LPD*%
G01*
G04 APERTURE LIST*
G04 Aperture macros list*
%AMRoundRect*
0 Rectangle with rounded corners*
0 $1 Rounding radius*
0 $2 $3 $4 $5 $6 $7 $8 $9 X,Y pos of 4 corners*
0 Add a 4 corners polygon primitive as box body*
4,1,4,$2,$3,$4,$5,$6,$7,$8,$9,$2,$3,0*
0 Add four circle primitives for the rounded corners*
1,1,$1+$1,$2,$3*
1,1,$1+$1,$4,$5*
1,1,$1+$1,$6,$7*
1,1,$1+$1,$8,$9*
0 Add four rect primitives between the rounded corners*
20,1,$1+$1,$2,$3,$4,$5,0*
20,1,$1+$1,$4,$5,$6,$7,0*
20,1,$1+$1,$6,$7,$8,$9,0*
20,1,$1+$1,$8,$9,$2,$3,0*%
G04 Aperture macros list end*
G04 #@! TA.AperFunction,ComponentPad*
%ADD10C,2.200000*%
G04 #@! TD*
G04 #@! TA.AperFunction,SMDPad,CuDef*
%ADD11R,0.850000X1.600000*%
G04 #@! TD*
G04 #@! TA.AperFunction,ComponentPad*
%ADD12RoundRect,0.250000X-0.550000X0.550000X-0.550000X-0.550000X0.550000X-0.550000X0.550000X0.550000X0*%
G04 #@! TD*
G04 #@! TA.AperFunction,ComponentPad*
%ADD13C,1.600000*%
G04 #@! TD*
G04 #@! TA.AperFunction,SMDPad,CuDef*
%ADD14RoundRect,0.152400X-0.609600X1.063600X-0.609600X-1.063600X0.609600X-1.063600X0.609600X1.063600X0*%
G04 #@! TD*
G04 #@! TA.AperFunction,ComponentPad*
%ADD15C,1.524000*%
G04 #@! TD*
G04 #@! TA.AperFunction,SMDPad,CuDef*
%ADD16RoundRect,0.152400X0.609600X-1.063600X0.609600X1.063600X-0.609600X1.063600X-0.609600X-1.063600X0*%
G04 #@! TD*
G04 #@! TA.AperFunction,ComponentPad*
%ADD17R,2.000000X2.000000*%
G04 #@! TD*
G04 #@! TA.AperFunction,ComponentPad*
%ADD18C,2.000000*%
G04 #@! TD*
G04 #@! TA.AperFunction,ComponentPad*
%ADD19R,3.200000X2.000000*%
G04 #@! TD*
G04 #@! TA.AperFunction,ViaPad*
%ADD20C,0.600000*%
G04 #@! TD*
G04 #@! TA.AperFunction,Conductor*
%ADD21C,0.200000*%
G04 #@! TD*
G04 APERTURE END LIST*
D10*
G04 #@! TO.P,SW1,1,1*
G04 #@! TO.N,Net-(U1-GPIO29{slash}ADC3{slash}A3)*
X35290000Y-68000000D03*
G04 #@! TO.P,SW1,2,2*
G04 #@! TO.N,Net-(D1-A)*
X28940000Y-70540000D03*
G04 #@! TD*
D11*
G04 #@! TO.P,D10,1,VSS*
G04 #@! TO.N,GND*
X46962500Y-24250000D03*
G04 #@! TO.P,D10,2,DIN*
G04 #@! TO.N,Net-(D10-DIN)*
X45212500Y-24250000D03*
G04 #@! TO.P,D10,3,VDD*
G04 #@! TO.N,+5V*
X45212500Y-27750000D03*
G04 #@! TO.P,D10,4,DOUT*
G04 #@! TO.N,unconnected-(D10-DOUT-Pad4)*
X46962500Y-27750000D03*
G04 #@! TD*
D12*
G04 #@! TO.P,D3,1,K*
G04 #@! TO.N,Net-(D1-K)*
X70841071Y-24940000D03*
D13*
G04 #@! TO.P,D3,2,A*
G04 #@! TO.N,Net-(D3-A)*
X70841071Y-32560000D03*
G04 #@! TD*
D10*
G04 #@! TO.P,SW5,1,1*
G04 #@! TO.N,Net-(U1-GPIO28{slash}ADC2{slash}A2)*
X54290000Y-48920000D03*
G04 #@! TO.P,SW5,2,2*
G04 #@! TO.N,Net-(D6-A)*
X47940000Y-51460000D03*
G04 #@! TD*
G04 #@! TO.P,SW2,1,1*
G04 #@! TO.N,Net-(U1-GPIO28{slash}ADC2{slash}A2)*
X54290000Y-68000000D03*
G04 #@! TO.P,SW2,2,2*
G04 #@! TO.N,Net-(D2-A)*
X47940000Y-70540000D03*
G04 #@! TD*
D14*
G04 #@! TO.P,U1,1,GPIO26/ADC0/A0*
G04 #@! TO.N,Net-(U1-GPIO26{slash}ADC0{slash}A0)*
X21000000Y-38205000D03*
D15*
X21000000Y-37370000D03*
D14*
G04 #@! TO.P,U1,2,GPIO27/ADC1/A1*
G04 #@! TO.N,Net-(U1-GPIO27{slash}ADC1{slash}A1)*
X23540000Y-38205000D03*
D15*
X23540000Y-37370000D03*
D14*
G04 #@! TO.P,U1,3,GPIO28/ADC2/A2*
G04 #@! TO.N,Net-(U1-GPIO28{slash}ADC2{slash}A2)*
X26080000Y-38205000D03*
D15*
X26080000Y-37370000D03*
D14*
G04 #@! TO.P,U1,4,GPIO29/ADC3/A3*
G04 #@! TO.N,Net-(U1-GPIO29{slash}ADC3{slash}A3)*
X28620000Y-38205000D03*
D15*
X28620000Y-37370000D03*
D14*
G04 #@! TO.P,U1,5,GPIO6/SDA*
G04 #@! TO.N,unconnected-(U1-GPIO6{slash}SDA-Pad5)*
X31160000Y-38205000D03*
D15*
X31160000Y-37370000D03*
D14*
G04 #@! TO.P,U1,6,GPIO7/SCL*
G04 #@! TO.N,unconnected-(U1-GPIO7{slash}SCL-Pad6)*
X33700000Y-38205000D03*
D15*
X33700000Y-37370000D03*
D14*
G04 #@! TO.P,U1,7,GPIO0/TX*
G04 #@! TO.N,Net-(D9-DIN)*
X36240000Y-38205000D03*
D15*
X36240000Y-37370000D03*
G04 #@! TO.P,U1,8,GPIO1/RX*
G04 #@! TO.N,Net-(D5-K)*
X36240000Y-22130000D03*
D16*
X36240000Y-21295000D03*
D15*
G04 #@! TO.P,U1,9,GPIO2/SCK*
G04 #@! TO.N,Net-(D1-K)*
X33700000Y-22130000D03*
D16*
X33700000Y-21295000D03*
D15*
G04 #@! TO.P,U1,10,GPIO4/MISO*
G04 #@! TO.N,Net-(U1-GPIO4{slash}MISO)*
X31160000Y-22130000D03*
D16*
X31160000Y-21295000D03*
D15*
G04 #@! TO.P,U1,11,GPIO3/MOSI*
G04 #@! TO.N,Net-(U1-GPIO3{slash}MOSI)*
X28620000Y-22130000D03*
D16*
X28620000Y-21295000D03*
D15*
G04 #@! TO.P,U1,12,3V3*
G04 #@! TO.N,unconnected-(U1-3V3-Pad12)*
X26080000Y-22130000D03*
D16*
X26080000Y-21295000D03*
D15*
G04 #@! TO.P,U1,13,GND*
G04 #@! TO.N,GND*
X23540000Y-22130000D03*
D16*
X23540000Y-21295000D03*
D15*
G04 #@! TO.P,U1,14,VBUS*
G04 #@! TO.N,+5V*
X21000000Y-22130000D03*
D16*
X21000000Y-21295000D03*
G04 #@! TD*
D10*
G04 #@! TO.P,SW3,1,1*
G04 #@! TO.N,Net-(U1-GPIO27{slash}ADC1{slash}A1)*
X73350000Y-68000000D03*
G04 #@! TO.P,SW3,2,2*
G04 #@! TO.N,Net-(D3-A)*
X67000000Y-70540000D03*
G04 #@! TD*
G04 #@! TO.P,SW8,1,1*
G04 #@! TO.N,Net-(U1-GPIO26{slash}ADC0{slash}A0)*
X92350000Y-68000000D03*
G04 #@! TO.P,SW8,2,2*
G04 #@! TO.N,Net-(D4-A)*
X86000000Y-70540000D03*
G04 #@! TD*
D12*
G04 #@! TO.P,D4,1,K*
G04 #@! TO.N,Net-(D1-K)*
X67355357Y-24940000D03*
D13*
G04 #@! TO.P,D4,2,A*
G04 #@! TO.N,Net-(D4-A)*
X67355357Y-32560000D03*
G04 #@! TD*
D10*
G04 #@! TO.P,SW6,1,1*
G04 #@! TO.N,Net-(U1-GPIO27{slash}ADC1{slash}A1)*
X73290000Y-48920000D03*
G04 #@! TO.P,SW6,2,2*
G04 #@! TO.N,Net-(D7-A)*
X66940000Y-51460000D03*
G04 #@! TD*
D12*
G04 #@! TO.P,D6,1,K*
G04 #@! TO.N,Net-(D5-K)*
X60383929Y-24940000D03*
D13*
G04 #@! TO.P,D6,2,A*
G04 #@! TO.N,Net-(D6-A)*
X60383929Y-32560000D03*
G04 #@! TD*
D12*
G04 #@! TO.P,D1,1,K*
G04 #@! TO.N,Net-(D1-K)*
X77812500Y-24940000D03*
D13*
G04 #@! TO.P,D1,2,A*
G04 #@! TO.N,Net-(D1-A)*
X77812500Y-32560000D03*
G04 #@! TD*
D12*
G04 #@! TO.P,D2,1,K*
G04 #@! TO.N,Net-(D1-K)*
X74326786Y-24940000D03*
D13*
G04 #@! TO.P,D2,2,A*
G04 #@! TO.N,Net-(D2-A)*
X74326786Y-32560000D03*
G04 #@! TD*
D11*
G04 #@! TO.P,D9,1,VSS*
G04 #@! TO.N,GND*
X46962500Y-32000000D03*
G04 #@! TO.P,D9,2,DIN*
G04 #@! TO.N,Net-(D9-DIN)*
X45212500Y-32000000D03*
G04 #@! TO.P,D9,3,VDD*
G04 #@! TO.N,+5V*
X45212500Y-35500000D03*
G04 #@! TO.P,D9,4,DOUT*
G04 #@! TO.N,Net-(D10-DIN)*
X46962500Y-35500000D03*
G04 #@! TD*
D12*
G04 #@! TO.P,D5,1,K*
G04 #@! TO.N,Net-(D5-K)*
X63869643Y-25000000D03*
D13*
G04 #@! TO.P,D5,2,A*
G04 #@! TO.N,Net-(D5-A)*
X63869643Y-32620000D03*
G04 #@! TD*
D10*
G04 #@! TO.P,SW4,1,1*
G04 #@! TO.N,Net-(U1-GPIO29{slash}ADC3{slash}A3)*
X35290000Y-48920000D03*
G04 #@! TO.P,SW4,2,2*
G04 #@! TO.N,Net-(D5-A)*
X28940000Y-51460000D03*
G04 #@! TD*
D12*
G04 #@! TO.P,D8,1,K*
G04 #@! TO.N,Net-(D5-K)*
X53412500Y-24940000D03*
D13*
G04 #@! TO.P,D8,2,A*
G04 #@! TO.N,Net-(D8-A)*
X53412500Y-32560000D03*
G04 #@! TD*
D12*
G04 #@! TO.P,D7,1,K*
G04 #@! TO.N,Net-(D5-K)*
X56898214Y-24940000D03*
D13*
G04 #@! TO.P,D7,2,A*
G04 #@! TO.N,Net-(D7-A)*
X56898214Y-32560000D03*
G04 #@! TD*
D17*
G04 #@! TO.P,SW7,A,A*
G04 #@! TO.N,Net-(U1-GPIO4{slash}MISO)*
X101250000Y-32000000D03*
D18*
G04 #@! TO.P,SW7,B,B*
G04 #@! TO.N,Net-(U1-GPIO3{slash}MOSI)*
X101250000Y-27000000D03*
G04 #@! TO.P,SW7,C,C*
G04 #@! TO.N,GND*
X101250000Y-29500000D03*
D19*
G04 #@! TO.P,SW7,MP*
G04 #@! TO.N,N/C*
X93750000Y-35100000D03*
X93750000Y-23900000D03*
D18*
G04 #@! TO.P,SW7,S1,S1*
G04 #@! TO.N,Net-(D8-A)*
X86750000Y-27000000D03*
G04 #@! TO.P,SW7,S2,S2*
G04 #@! TO.N,Net-(U1-GPIO26{slash}ADC0{slash}A0)*
X86750000Y-32000000D03*
G04 #@! TD*
D20*
G04 #@! TO.N,Net-(D3-A)*
X70895536Y-44245536D03*
G04 #@! TO.N,Net-(D4-A)*
X67355357Y-44300000D03*
G04 #@! TO.N,Net-(D6-A)*
X60383929Y-44283929D03*
G04 #@! TO.N,Net-(D7-A)*
X56900000Y-44200000D03*
G04 #@! TO.N,Net-(D8-A)*
X53150707Y-44250707D03*
G04 #@! TO.N,Net-(U1-GPIO4{slash}MISO)*
X31160000Y-18198000D03*
G04 #@! TO.N,Net-(U1-GPIO26{slash}ADC0{slash}A0)*
X79900000Y-44200000D03*
G04 #@! TD*
D21*
G04 #@! TO.N,Net-(D1-K)*
X37041626Y-19778000D02*
X35438374Y-19778000D01*
X67355357Y-21155357D02*
X65800000Y-19600000D01*
X33700000Y-20900000D02*
X33700000Y-22130000D01*
X35216374Y-20000000D02*
X34600000Y-20000000D01*
X70841071Y-24940000D02*
X74326786Y-24940000D01*
X74326786Y-24940000D02*
X77812500Y-24940000D01*
X67355357Y-24940000D02*
X70841071Y-24940000D01*
X35438374Y-19778000D02*
X35216374Y-20000000D01*
X67355357Y-24940000D02*
X67355357Y-21155357D01*
X65800000Y-19600000D02*
X37219626Y-19600000D01*
X34600000Y-20000000D02*
X33700000Y-20900000D01*
X37219626Y-19600000D02*
X37041626Y-19778000D01*
G04 #@! TO.N,Net-(D1-A)*
X37275816Y-74281000D02*
X33534816Y-70540000D01*
X47167470Y-74281000D02*
X37275816Y-74281000D01*
X48520314Y-69139000D02*
X49341000Y-69959686D01*
X52889000Y-49181000D02*
X48520314Y-53549686D01*
X48520314Y-53549686D02*
X48520314Y-69139000D01*
X71026100Y-47141000D02*
X54087686Y-47141000D01*
X75940000Y-32560000D02*
X73300000Y-35200000D01*
X49341000Y-72107470D02*
X47167470Y-74281000D01*
X52889000Y-48339686D02*
X52889000Y-49181000D01*
X73300000Y-35200000D02*
X73300000Y-44867100D01*
X73300000Y-44867100D02*
X71026100Y-47141000D01*
X49341000Y-69959686D02*
X49341000Y-72107470D01*
X33534816Y-70540000D02*
X28940000Y-70540000D01*
X54087686Y-47141000D02*
X52889000Y-48339686D01*
X77812500Y-32560000D02*
X75940000Y-32560000D01*
G04 #@! TO.N,Net-(D2-A)*
X72800000Y-34086786D02*
X72800000Y-44800000D01*
X70860000Y-46740000D02*
X53921586Y-46740000D01*
X72800000Y-44800000D02*
X70860000Y-46740000D01*
X74326786Y-32560000D02*
X72800000Y-34086786D01*
X53921586Y-46740000D02*
X52488000Y-48173586D01*
X52488000Y-48893314D02*
X47940000Y-53441314D01*
X52488000Y-48173586D02*
X52488000Y-48893314D01*
X47940000Y-53441314D02*
X47940000Y-70540000D01*
X48160000Y-70320000D02*
X47940000Y-70540000D01*
G04 #@! TO.N,Net-(D3-A)*
X72200000Y-33918929D02*
X70841071Y-32560000D01*
X70895536Y-44245536D02*
X72200000Y-42941071D01*
X72200000Y-42941071D02*
X72200000Y-33918929D01*
G04 #@! TO.N,Net-(D4-A)*
X69900000Y-44300000D02*
X71700000Y-42500000D01*
X69060000Y-32560000D02*
X67355357Y-32560000D01*
X71700000Y-42500000D02*
X71700000Y-35200000D01*
X71700000Y-35200000D02*
X69060000Y-32560000D01*
X67355357Y-44300000D02*
X69900000Y-44300000D01*
G04 #@! TO.N,Net-(D5-K)*
X56898214Y-24940000D02*
X60383929Y-24940000D01*
X53540000Y-24940000D02*
X53700000Y-25100000D01*
X53412500Y-24940000D02*
X56898214Y-24940000D01*
X38370000Y-20000000D02*
X36240000Y-22130000D01*
X53412500Y-24940000D02*
X53412500Y-21212500D01*
X63809643Y-24940000D02*
X63869643Y-25000000D01*
X53412500Y-24940000D02*
X53540000Y-24940000D01*
X52200000Y-20000000D02*
X38370000Y-20000000D01*
X60383929Y-24940000D02*
X63809643Y-24940000D01*
X53412500Y-21212500D02*
X52200000Y-20000000D01*
G04 #@! TO.N,Net-(D5-A)*
X60984929Y-44532872D02*
X60984929Y-44034986D01*
X34728199Y-45671801D02*
X28940000Y-51460000D01*
X61980000Y-32620000D02*
X63869643Y-32620000D01*
X59846000Y-45671801D02*
X34728199Y-45671801D01*
X59500000Y-42832900D02*
X59500000Y-35100000D01*
X60350029Y-43682929D02*
X59500000Y-42832900D01*
X59500000Y-35100000D02*
X61980000Y-32620000D01*
X60984929Y-44034986D02*
X60632872Y-43682929D01*
X60984929Y-44532872D02*
X59846000Y-45671801D01*
X60632872Y-43682929D02*
X60350029Y-43682929D01*
G04 #@! TO.N,Net-(D6-A)*
X60383929Y-44283929D02*
X59000000Y-42900000D01*
X59000000Y-42900000D02*
X59000000Y-33943929D01*
X59000000Y-33943929D02*
X60383929Y-32560000D01*
G04 #@! TO.N,Net-(D7-A)*
X56900000Y-44200000D02*
X56900000Y-43700000D01*
X58400000Y-42200000D02*
X58400000Y-34061786D01*
X56900000Y-43700000D02*
X58400000Y-42200000D01*
X58400000Y-34061786D02*
X56898214Y-32560000D01*
G04 #@! TO.N,Net-(D8-A)*
X56461000Y-33661000D02*
X56442164Y-33661000D01*
X55360000Y-32560000D02*
X53412500Y-32560000D01*
X57900000Y-41300000D02*
X57900000Y-35100000D01*
X55797214Y-32997214D02*
X55360000Y-32560000D01*
X57900000Y-35100000D02*
X56461000Y-33661000D01*
X53150707Y-44250707D02*
X54949293Y-44250707D01*
X55797214Y-33016050D02*
X55797214Y-32997214D01*
X56442164Y-33661000D02*
X55797214Y-33016050D01*
X54949293Y-44250707D02*
X57900000Y-41300000D01*
G04 #@! TO.N,Net-(D10-DIN)*
X48089500Y-34373000D02*
X46962500Y-35500000D01*
X46313500Y-23149000D02*
X47688500Y-23149000D01*
X45212500Y-24250000D02*
X46313500Y-23149000D01*
X47688500Y-23149000D02*
X48089500Y-23550000D01*
X48089500Y-23550000D02*
X48089500Y-34373000D01*
G04 #@! TO.N,Net-(D9-DIN)*
X45938500Y-32726000D02*
X45212500Y-32000000D01*
X45169500Y-37370000D02*
X45938500Y-36601000D01*
X36240000Y-37370000D02*
X45169500Y-37370000D01*
X45938500Y-36601000D02*
X45938500Y-32726000D01*
G04 #@! TO.N,GND*
X94887892Y-18798000D02*
X102551000Y-26461108D01*
X102551000Y-26461108D02*
X102551000Y-28199000D01*
X47688500Y-24976000D02*
X46962500Y-24250000D01*
X23540000Y-22130000D02*
X23540000Y-21052370D01*
X46962500Y-24250000D02*
X45861500Y-25351000D01*
X26761000Y-25351000D02*
X23540000Y-22130000D01*
X47688500Y-31274000D02*
X47688500Y-24976000D01*
X46962500Y-32000000D02*
X47688500Y-31274000D01*
X45861500Y-25351000D02*
X26761000Y-25351000D01*
X102551000Y-28199000D02*
X101250000Y-29500000D01*
X23540000Y-21052370D02*
X25794370Y-18798000D01*
X25794370Y-18798000D02*
X94887892Y-18798000D01*
G04 #@! TO.N,+5V*
X44486500Y-34774000D02*
X45212500Y-35500000D01*
X26620000Y-27750000D02*
X45212500Y-27750000D01*
X21000000Y-22130000D02*
X26620000Y-27750000D01*
X45212500Y-27750000D02*
X44486500Y-28476000D01*
X44486500Y-28476000D02*
X44486500Y-34774000D01*
G04 #@! TO.N,Net-(U1-GPIO29{slash}ADC3{slash}A3)*
X35290000Y-48920000D02*
X33461314Y-48920000D01*
X27539000Y-38451000D02*
X28620000Y-37370000D01*
X35290000Y-48920000D02*
X35290000Y-68000000D01*
X29520314Y-52861000D02*
X28229470Y-52861000D01*
X28229470Y-52861000D02*
X27539000Y-52170530D01*
X33461314Y-48920000D02*
X29520314Y-52861000D01*
X28620000Y-38447630D02*
X28620000Y-37370000D01*
X27539000Y-52170530D02*
X27539000Y-38451000D01*
G04 #@! TO.N,Net-(U1-GPIO28{slash}ADC2{slash}A2)*
X28911530Y-76020000D02*
X52370000Y-76020000D01*
X26068000Y-37382000D02*
X26068000Y-73176470D01*
X52370000Y-76020000D02*
X54290000Y-74100000D01*
X54290000Y-48920000D02*
X54290000Y-68000000D01*
X25952750Y-37497250D02*
X26080000Y-37370000D01*
X54290000Y-74100000D02*
X54290000Y-68000000D01*
X26068000Y-73176470D02*
X28911530Y-76020000D01*
X26080000Y-37370000D02*
X26068000Y-37382000D01*
G04 #@! TO.N,Net-(U1-GPIO27{slash}ADC1{slash}A1)*
X73350000Y-68000000D02*
X72565184Y-68000000D01*
X28575000Y-80962500D02*
X23540000Y-75927500D01*
X59602684Y-80962500D02*
X28575000Y-80962500D01*
X72565184Y-68000000D02*
X59602684Y-80962500D01*
X73290000Y-48920000D02*
X73290000Y-67940000D01*
X23540000Y-75927500D02*
X23540000Y-37370000D01*
X73290000Y-67940000D02*
X73350000Y-68000000D01*
G04 #@! TO.N,Net-(U1-GPIO4{slash}MISO)*
X31200000Y-18238000D02*
X31200000Y-18397000D01*
X102952000Y-30298000D02*
X101250000Y-32000000D01*
X31200000Y-18397000D02*
X95053992Y-18397000D01*
X95053992Y-18397000D02*
X102952000Y-26295008D01*
X102952000Y-26295008D02*
X102952000Y-30298000D01*
X31160000Y-18198000D02*
X31200000Y-18238000D01*
G04 #@! TO.N,Net-(U1-GPIO26{slash}ADC0{slash}A0)*
X86750000Y-32000000D02*
X86750000Y-34370000D01*
X79900000Y-62820000D02*
X85080000Y-68000000D01*
X86750000Y-34370000D02*
X79900000Y-41220000D01*
X79900000Y-41220000D02*
X79900000Y-62820000D01*
X85080000Y-68000000D02*
X92812500Y-68000000D01*
G04 #@! TO.N,Net-(U1-GPIO3{slash}MOSI)*
X101250000Y-25727208D02*
X101250000Y-27000000D01*
X94721792Y-19199000D02*
X101250000Y-25727208D01*
X28620000Y-21052370D02*
X30473370Y-19199000D01*
X28620000Y-22130000D02*
X28620000Y-21052370D01*
X30473370Y-19199000D02*
X94721792Y-19199000D01*
G04 #@! TD*
M02*
