M48
; DRILL file {KiCad 9.0.7} date 2026-02-11T18:03:53+0100
; FORMAT={-:-/ absolute / metric / decimal}
; #@! TF.CreationDate,2026-02-11T18:03:53+01:00
; #@! TF.GenerationSoftware,Kicad,Pcbnew,9.0.7
; #@! TF.FileFunction,MixedPlating,1,2
FMAT,2
METRIC
; #@! TA.AperFunction,Plated,PTH,ViaDrill
T1C0.300
; #@! TA.AperFunction,Plated,PTH,ComponentDrill
T2C0.800
; #@! TA.AperFunction,Plated,PTH,ComponentDrill
T3C0.889
; #@! TA.AperFunction,Plated,PTH,ComponentDrill
T4C1.000
; #@! TA.AperFunction,Plated,PTH,ComponentDrill
T5C1.500
; #@! TA.AperFunction,NonPlated,NPTH,ComponentDrill
T6C1.600
; #@! TA.AperFunction,NonPlated,NPTH,ComponentDrill
T7C1.700
; #@! TA.AperFunction,NonPlated,NPTH,ComponentDrill
T8C2.100
; #@! TA.AperFunction,NonPlated,NPTH,ComponentDrill
T9C3.200
; #@! TA.AperFunction,NonPlated,NPTH,ComponentDrill
T10C4.000
%
G90
G05
T1
X31.16Y-18.198
X53.151Y-44.251
X56.9Y-44.2
X60.384Y-44.284
X67.355Y-44.3
X70.896Y-44.246
X79.9Y-44.2
T2
X53.412Y-24.94
X53.412Y-32.56
X56.898Y-24.94
X56.898Y-32.56
X60.384Y-24.94
X60.384Y-32.56
X63.87Y-25.0
X63.87Y-32.62
X67.355Y-24.94
X67.355Y-32.56
X70.841Y-24.94
X70.841Y-32.56
X74.327Y-24.94
X74.327Y-32.56
X77.812Y-24.94
X77.812Y-32.56
T3
X21.0Y-22.13
X21.0Y-37.37
X23.54Y-22.13
X23.54Y-37.37
X26.08Y-22.13
X26.08Y-37.37
X28.62Y-22.13
X28.62Y-37.37
X31.16Y-22.13
X31.16Y-37.37
X33.7Y-22.13
X33.7Y-37.37
X36.24Y-22.13
X36.24Y-37.37
T4
X86.75Y-27.0
X86.75Y-32.0
X101.25Y-27.0
X101.25Y-29.5
X101.25Y-32.0
T5
X28.94Y-51.46
X28.94Y-70.54
X35.29Y-48.92
X35.29Y-68.0
X47.94Y-51.46
X47.94Y-70.54
X54.29Y-48.92
X54.29Y-68.0
X66.94Y-51.46
X67.0Y-70.54
X73.29Y-48.92
X73.35Y-68.0
X86.0Y-70.54
X92.35Y-68.0
T7
X27.67Y-54.0
X27.67Y-73.08
X37.83Y-54.0
X37.83Y-73.08
X46.67Y-54.0
X46.67Y-73.08
X56.83Y-54.0
X56.83Y-73.08
X65.67Y-54.0
X65.73Y-73.08
X75.83Y-54.0
X75.89Y-73.08
X84.73Y-73.08
X94.89Y-73.08
T8
X93.75Y-29.5
T9
X21.5Y-81.2
X43.1Y-41.0
X100.3Y-59.9
T10
X32.75Y-54.0
X32.75Y-73.08
X51.75Y-54.0
X51.75Y-73.08
X70.75Y-54.0
X70.81Y-73.08
X89.81Y-73.08
T5
G00X94.4Y-23.9
M15
G01X93.1Y-23.9
M16
G05
G00X94.4Y-35.1
M15
G01X93.1Y-35.1
M16
G05
T6
G00X98.55Y-29.5
M15
G01X97.95Y-29.5
M16
G05
M30
