G04 #@! TF.GenerationSoftware,KiCad,Pcbnew,9.0.7*
G04 #@! TF.CreationDate,2026-02-11T18:03:55+01:00*
G04 #@! TF.ProjectId,Schematic.kicad_pcb_2,53636865-6d61-4746-9963-2e6b69636164,rev?*
G04 #@! TF.SameCoordinates,Original*
G04 #@! TF.FileFunction,Legend,Top*
G04 #@! TF.FilePolarity,Positive*
%FSLAX46Y46*%
G04 Gerber Fmt 4.6, Leading zero omitted, Abs format (unit mm)*
G04 Created by KiCad (PCBNEW 9.0.7) date 2026-02-11 18:03:55*
%MOMM*%
%LPD*%
G01*
G04 APERTURE LIST*
%ADD10C,0.300000*%
%ADD11C,0.150000*%
%ADD12C,0.120000*%
%ADD13C,0.127000*%
%ADD14C,0.100000*%
%ADD15C,0.504000*%
G04 APERTURE END LIST*
D10*
X23161653Y-28050828D02*
X24161653Y-29550828D01*
X24161653Y-28050828D02*
X23161653Y-29550828D01*
X24733081Y-29550828D02*
X24733081Y-28050828D01*
X25375939Y-29122257D02*
X26090225Y-29122257D01*
X25233082Y-29550828D02*
X25733082Y-28050828D01*
X25733082Y-28050828D02*
X26233082Y-29550828D01*
X27018796Y-28050828D02*
X27304510Y-28050828D01*
X27304510Y-28050828D02*
X27447367Y-28122257D01*
X27447367Y-28122257D02*
X27590224Y-28265114D01*
X27590224Y-28265114D02*
X27661653Y-28550828D01*
X27661653Y-28550828D02*
X27661653Y-29050828D01*
X27661653Y-29050828D02*
X27590224Y-29336542D01*
X27590224Y-29336542D02*
X27447367Y-29479400D01*
X27447367Y-29479400D02*
X27304510Y-29550828D01*
X27304510Y-29550828D02*
X27018796Y-29550828D01*
X27018796Y-29550828D02*
X26875939Y-29479400D01*
X26875939Y-29479400D02*
X26733081Y-29336542D01*
X26733081Y-29336542D02*
X26661653Y-29050828D01*
X26661653Y-29050828D02*
X26661653Y-28550828D01*
X26661653Y-28550828D02*
X26733081Y-28265114D01*
X26733081Y-28265114D02*
X26875939Y-28122257D01*
X26875939Y-28122257D02*
X27018796Y-28050828D01*
X29447367Y-29550828D02*
X29447367Y-28050828D01*
X29447367Y-28765114D02*
X30304510Y-28765114D01*
X30304510Y-29550828D02*
X30304510Y-28050828D01*
X31018796Y-28765114D02*
X31518796Y-28765114D01*
X31733082Y-29550828D02*
X31018796Y-29550828D01*
X31018796Y-29550828D02*
X31018796Y-28050828D01*
X31018796Y-28050828D02*
X31733082Y-28050828D01*
X33233082Y-29550828D02*
X32733082Y-28836542D01*
X32375939Y-29550828D02*
X32375939Y-28050828D01*
X32375939Y-28050828D02*
X32947368Y-28050828D01*
X32947368Y-28050828D02*
X33090225Y-28122257D01*
X33090225Y-28122257D02*
X33161654Y-28193685D01*
X33161654Y-28193685D02*
X33233082Y-28336542D01*
X33233082Y-28336542D02*
X33233082Y-28550828D01*
X33233082Y-28550828D02*
X33161654Y-28693685D01*
X33161654Y-28693685D02*
X33090225Y-28765114D01*
X33090225Y-28765114D02*
X32947368Y-28836542D01*
X32947368Y-28836542D02*
X32375939Y-28836542D01*
X33875939Y-28765114D02*
X34375939Y-28765114D01*
X34590225Y-29550828D02*
X33875939Y-29550828D01*
X33875939Y-29550828D02*
X33875939Y-28050828D01*
X33875939Y-28050828D02*
X34590225Y-28050828D01*
X83854510Y-43300828D02*
X83854510Y-41800828D01*
X83854510Y-41800828D02*
X84354510Y-42872257D01*
X84354510Y-42872257D02*
X84854510Y-41800828D01*
X84854510Y-41800828D02*
X84854510Y-43300828D01*
X86211654Y-43300828D02*
X86211654Y-42515114D01*
X86211654Y-42515114D02*
X86140225Y-42372257D01*
X86140225Y-42372257D02*
X85997368Y-42300828D01*
X85997368Y-42300828D02*
X85711654Y-42300828D01*
X85711654Y-42300828D02*
X85568796Y-42372257D01*
X86211654Y-43229400D02*
X86068796Y-43300828D01*
X86068796Y-43300828D02*
X85711654Y-43300828D01*
X85711654Y-43300828D02*
X85568796Y-43229400D01*
X85568796Y-43229400D02*
X85497368Y-43086542D01*
X85497368Y-43086542D02*
X85497368Y-42943685D01*
X85497368Y-42943685D02*
X85568796Y-42800828D01*
X85568796Y-42800828D02*
X85711654Y-42729400D01*
X85711654Y-42729400D02*
X86068796Y-42729400D01*
X86068796Y-42729400D02*
X86211654Y-42657971D01*
X86783082Y-43300828D02*
X87568797Y-42300828D01*
X86783082Y-42300828D02*
X87568797Y-43300828D01*
X88211654Y-41800828D02*
X88068797Y-42086542D01*
X88783083Y-43229400D02*
X88925940Y-43300828D01*
X88925940Y-43300828D02*
X89211654Y-43300828D01*
X89211654Y-43300828D02*
X89354511Y-43229400D01*
X89354511Y-43229400D02*
X89425940Y-43086542D01*
X89425940Y-43086542D02*
X89425940Y-43015114D01*
X89425940Y-43015114D02*
X89354511Y-42872257D01*
X89354511Y-42872257D02*
X89211654Y-42800828D01*
X89211654Y-42800828D02*
X88997369Y-42800828D01*
X88997369Y-42800828D02*
X88854511Y-42729400D01*
X88854511Y-42729400D02*
X88783083Y-42586542D01*
X88783083Y-42586542D02*
X88783083Y-42515114D01*
X88783083Y-42515114D02*
X88854511Y-42372257D01*
X88854511Y-42372257D02*
X88997369Y-42300828D01*
X88997369Y-42300828D02*
X89211654Y-42300828D01*
X89211654Y-42300828D02*
X89354511Y-42372257D01*
X91211654Y-43300828D02*
X91211654Y-41800828D01*
X91211654Y-41800828D02*
X91711654Y-42872257D01*
X91711654Y-42872257D02*
X92211654Y-41800828D01*
X92211654Y-41800828D02*
X92211654Y-43300828D01*
X93568798Y-43300828D02*
X93568798Y-42515114D01*
X93568798Y-42515114D02*
X93497369Y-42372257D01*
X93497369Y-42372257D02*
X93354512Y-42300828D01*
X93354512Y-42300828D02*
X93068798Y-42300828D01*
X93068798Y-42300828D02*
X92925940Y-42372257D01*
X93568798Y-43229400D02*
X93425940Y-43300828D01*
X93425940Y-43300828D02*
X93068798Y-43300828D01*
X93068798Y-43300828D02*
X92925940Y-43229400D01*
X92925940Y-43229400D02*
X92854512Y-43086542D01*
X92854512Y-43086542D02*
X92854512Y-42943685D01*
X92854512Y-42943685D02*
X92925940Y-42800828D01*
X92925940Y-42800828D02*
X93068798Y-42729400D01*
X93068798Y-42729400D02*
X93425940Y-42729400D01*
X93425940Y-42729400D02*
X93568798Y-42657971D01*
X94925941Y-43229400D02*
X94783083Y-43300828D01*
X94783083Y-43300828D02*
X94497369Y-43300828D01*
X94497369Y-43300828D02*
X94354512Y-43229400D01*
X94354512Y-43229400D02*
X94283083Y-43157971D01*
X94283083Y-43157971D02*
X94211655Y-43015114D01*
X94211655Y-43015114D02*
X94211655Y-42586542D01*
X94211655Y-42586542D02*
X94283083Y-42443685D01*
X94283083Y-42443685D02*
X94354512Y-42372257D01*
X94354512Y-42372257D02*
X94497369Y-42300828D01*
X94497369Y-42300828D02*
X94783083Y-42300828D01*
X94783083Y-42300828D02*
X94925941Y-42372257D01*
X95568797Y-43300828D02*
X95568797Y-42300828D01*
X95568797Y-42586542D02*
X95640226Y-42443685D01*
X95640226Y-42443685D02*
X95711655Y-42372257D01*
X95711655Y-42372257D02*
X95854512Y-42300828D01*
X95854512Y-42300828D02*
X95997369Y-42300828D01*
X96711654Y-43300828D02*
X96568797Y-43229400D01*
X96568797Y-43229400D02*
X96497368Y-43157971D01*
X96497368Y-43157971D02*
X96425940Y-43015114D01*
X96425940Y-43015114D02*
X96425940Y-42586542D01*
X96425940Y-42586542D02*
X96497368Y-42443685D01*
X96497368Y-42443685D02*
X96568797Y-42372257D01*
X96568797Y-42372257D02*
X96711654Y-42300828D01*
X96711654Y-42300828D02*
X96925940Y-42300828D01*
X96925940Y-42300828D02*
X97068797Y-42372257D01*
X97068797Y-42372257D02*
X97140226Y-42443685D01*
X97140226Y-42443685D02*
X97211654Y-42586542D01*
X97211654Y-42586542D02*
X97211654Y-43015114D01*
X97211654Y-43015114D02*
X97140226Y-43157971D01*
X97140226Y-43157971D02*
X97068797Y-43229400D01*
X97068797Y-43229400D02*
X96925940Y-43300828D01*
X96925940Y-43300828D02*
X96711654Y-43300828D01*
X97854511Y-42300828D02*
X97854511Y-43800828D01*
X97854511Y-42372257D02*
X97997369Y-42300828D01*
X97997369Y-42300828D02*
X98283083Y-42300828D01*
X98283083Y-42300828D02*
X98425940Y-42372257D01*
X98425940Y-42372257D02*
X98497369Y-42443685D01*
X98497369Y-42443685D02*
X98568797Y-42586542D01*
X98568797Y-42586542D02*
X98568797Y-43015114D01*
X98568797Y-43015114D02*
X98497369Y-43157971D01*
X98497369Y-43157971D02*
X98425940Y-43229400D01*
X98425940Y-43229400D02*
X98283083Y-43300828D01*
X98283083Y-43300828D02*
X97997369Y-43300828D01*
X97997369Y-43300828D02*
X97854511Y-43229400D01*
X99854512Y-43300828D02*
X99854512Y-42515114D01*
X99854512Y-42515114D02*
X99783083Y-42372257D01*
X99783083Y-42372257D02*
X99640226Y-42300828D01*
X99640226Y-42300828D02*
X99354512Y-42300828D01*
X99354512Y-42300828D02*
X99211654Y-42372257D01*
X99854512Y-43229400D02*
X99711654Y-43300828D01*
X99711654Y-43300828D02*
X99354512Y-43300828D01*
X99354512Y-43300828D02*
X99211654Y-43229400D01*
X99211654Y-43229400D02*
X99140226Y-43086542D01*
X99140226Y-43086542D02*
X99140226Y-42943685D01*
X99140226Y-42943685D02*
X99211654Y-42800828D01*
X99211654Y-42800828D02*
X99354512Y-42729400D01*
X99354512Y-42729400D02*
X99711654Y-42729400D01*
X99711654Y-42729400D02*
X99854512Y-42657971D01*
X101211655Y-43300828D02*
X101211655Y-41800828D01*
X101211655Y-43229400D02*
X101068797Y-43300828D01*
X101068797Y-43300828D02*
X100783083Y-43300828D01*
X100783083Y-43300828D02*
X100640226Y-43229400D01*
X100640226Y-43229400D02*
X100568797Y-43157971D01*
X100568797Y-43157971D02*
X100497369Y-43015114D01*
X100497369Y-43015114D02*
X100497369Y-42586542D01*
X100497369Y-42586542D02*
X100568797Y-42443685D01*
X100568797Y-42443685D02*
X100640226Y-42372257D01*
X100640226Y-42372257D02*
X100783083Y-42300828D01*
X100783083Y-42300828D02*
X101068797Y-42300828D01*
X101068797Y-42300828D02*
X101211655Y-42372257D01*
D11*
X31416667Y-65613200D02*
X31559524Y-65660819D01*
X31559524Y-65660819D02*
X31797619Y-65660819D01*
X31797619Y-65660819D02*
X31892857Y-65613200D01*
X31892857Y-65613200D02*
X31940476Y-65565580D01*
X31940476Y-65565580D02*
X31988095Y-65470342D01*
X31988095Y-65470342D02*
X31988095Y-65375104D01*
X31988095Y-65375104D02*
X31940476Y-65279866D01*
X31940476Y-65279866D02*
X31892857Y-65232247D01*
X31892857Y-65232247D02*
X31797619Y-65184628D01*
X31797619Y-65184628D02*
X31607143Y-65137009D01*
X31607143Y-65137009D02*
X31511905Y-65089390D01*
X31511905Y-65089390D02*
X31464286Y-65041771D01*
X31464286Y-65041771D02*
X31416667Y-64946533D01*
X31416667Y-64946533D02*
X31416667Y-64851295D01*
X31416667Y-64851295D02*
X31464286Y-64756057D01*
X31464286Y-64756057D02*
X31511905Y-64708438D01*
X31511905Y-64708438D02*
X31607143Y-64660819D01*
X31607143Y-64660819D02*
X31845238Y-64660819D01*
X31845238Y-64660819D02*
X31988095Y-64708438D01*
X32321429Y-64660819D02*
X32559524Y-65660819D01*
X32559524Y-65660819D02*
X32750000Y-64946533D01*
X32750000Y-64946533D02*
X32940476Y-65660819D01*
X32940476Y-65660819D02*
X33178572Y-64660819D01*
X34083333Y-65660819D02*
X33511905Y-65660819D01*
X33797619Y-65660819D02*
X33797619Y-64660819D01*
X33797619Y-64660819D02*
X33702381Y-64803676D01*
X33702381Y-64803676D02*
X33607143Y-64898914D01*
X33607143Y-64898914D02*
X33511905Y-64946533D01*
X49292319Y-27214285D02*
X48292319Y-27214285D01*
X48292319Y-27214285D02*
X48292319Y-26976190D01*
X48292319Y-26976190D02*
X48339938Y-26833333D01*
X48339938Y-26833333D02*
X48435176Y-26738095D01*
X48435176Y-26738095D02*
X48530414Y-26690476D01*
X48530414Y-26690476D02*
X48720890Y-26642857D01*
X48720890Y-26642857D02*
X48863747Y-26642857D01*
X48863747Y-26642857D02*
X49054223Y-26690476D01*
X49054223Y-26690476D02*
X49149461Y-26738095D01*
X49149461Y-26738095D02*
X49244700Y-26833333D01*
X49244700Y-26833333D02*
X49292319Y-26976190D01*
X49292319Y-26976190D02*
X49292319Y-27214285D01*
X49292319Y-25690476D02*
X49292319Y-26261904D01*
X49292319Y-25976190D02*
X48292319Y-25976190D01*
X48292319Y-25976190D02*
X48435176Y-26071428D01*
X48435176Y-26071428D02*
X48530414Y-26166666D01*
X48530414Y-26166666D02*
X48578033Y-26261904D01*
X48292319Y-25071428D02*
X48292319Y-24976190D01*
X48292319Y-24976190D02*
X48339938Y-24880952D01*
X48339938Y-24880952D02*
X48387557Y-24833333D01*
X48387557Y-24833333D02*
X48482795Y-24785714D01*
X48482795Y-24785714D02*
X48673271Y-24738095D01*
X48673271Y-24738095D02*
X48911366Y-24738095D01*
X48911366Y-24738095D02*
X49101842Y-24785714D01*
X49101842Y-24785714D02*
X49197080Y-24833333D01*
X49197080Y-24833333D02*
X49244700Y-24880952D01*
X49244700Y-24880952D02*
X49292319Y-24976190D01*
X49292319Y-24976190D02*
X49292319Y-25071428D01*
X49292319Y-25071428D02*
X49244700Y-25166666D01*
X49244700Y-25166666D02*
X49197080Y-25214285D01*
X49197080Y-25214285D02*
X49101842Y-25261904D01*
X49101842Y-25261904D02*
X48911366Y-25309523D01*
X48911366Y-25309523D02*
X48673271Y-25309523D01*
X48673271Y-25309523D02*
X48482795Y-25261904D01*
X48482795Y-25261904D02*
X48387557Y-25214285D01*
X48387557Y-25214285D02*
X48339938Y-25166666D01*
X48339938Y-25166666D02*
X48292319Y-25071428D01*
X46600204Y-23028571D02*
X46600204Y-22571428D01*
X46600204Y-22800000D02*
X47400204Y-22800000D01*
X47400204Y-22800000D02*
X47285919Y-22723809D01*
X47285919Y-22723809D02*
X47209728Y-22647619D01*
X47209728Y-22647619D02*
X47171633Y-22571428D01*
X73095890Y-25201904D02*
X72095890Y-25201904D01*
X73095890Y-24630476D02*
X72524461Y-25059047D01*
X72095890Y-24630476D02*
X72667318Y-25201904D01*
X50416667Y-46533200D02*
X50559524Y-46580819D01*
X50559524Y-46580819D02*
X50797619Y-46580819D01*
X50797619Y-46580819D02*
X50892857Y-46533200D01*
X50892857Y-46533200D02*
X50940476Y-46485580D01*
X50940476Y-46485580D02*
X50988095Y-46390342D01*
X50988095Y-46390342D02*
X50988095Y-46295104D01*
X50988095Y-46295104D02*
X50940476Y-46199866D01*
X50940476Y-46199866D02*
X50892857Y-46152247D01*
X50892857Y-46152247D02*
X50797619Y-46104628D01*
X50797619Y-46104628D02*
X50607143Y-46057009D01*
X50607143Y-46057009D02*
X50511905Y-46009390D01*
X50511905Y-46009390D02*
X50464286Y-45961771D01*
X50464286Y-45961771D02*
X50416667Y-45866533D01*
X50416667Y-45866533D02*
X50416667Y-45771295D01*
X50416667Y-45771295D02*
X50464286Y-45676057D01*
X50464286Y-45676057D02*
X50511905Y-45628438D01*
X50511905Y-45628438D02*
X50607143Y-45580819D01*
X50607143Y-45580819D02*
X50845238Y-45580819D01*
X50845238Y-45580819D02*
X50988095Y-45628438D01*
X51321429Y-45580819D02*
X51559524Y-46580819D01*
X51559524Y-46580819D02*
X51750000Y-45866533D01*
X51750000Y-45866533D02*
X51940476Y-46580819D01*
X51940476Y-46580819D02*
X52178572Y-45580819D01*
X53035714Y-45580819D02*
X52559524Y-45580819D01*
X52559524Y-45580819D02*
X52511905Y-46057009D01*
X52511905Y-46057009D02*
X52559524Y-46009390D01*
X52559524Y-46009390D02*
X52654762Y-45961771D01*
X52654762Y-45961771D02*
X52892857Y-45961771D01*
X52892857Y-45961771D02*
X52988095Y-46009390D01*
X52988095Y-46009390D02*
X53035714Y-46057009D01*
X53035714Y-46057009D02*
X53083333Y-46152247D01*
X53083333Y-46152247D02*
X53083333Y-46390342D01*
X53083333Y-46390342D02*
X53035714Y-46485580D01*
X53035714Y-46485580D02*
X52988095Y-46533200D01*
X52988095Y-46533200D02*
X52892857Y-46580819D01*
X52892857Y-46580819D02*
X52654762Y-46580819D01*
X52654762Y-46580819D02*
X52559524Y-46533200D01*
X52559524Y-46533200D02*
X52511905Y-46485580D01*
X50416667Y-65613200D02*
X50559524Y-65660819D01*
X50559524Y-65660819D02*
X50797619Y-65660819D01*
X50797619Y-65660819D02*
X50892857Y-65613200D01*
X50892857Y-65613200D02*
X50940476Y-65565580D01*
X50940476Y-65565580D02*
X50988095Y-65470342D01*
X50988095Y-65470342D02*
X50988095Y-65375104D01*
X50988095Y-65375104D02*
X50940476Y-65279866D01*
X50940476Y-65279866D02*
X50892857Y-65232247D01*
X50892857Y-65232247D02*
X50797619Y-65184628D01*
X50797619Y-65184628D02*
X50607143Y-65137009D01*
X50607143Y-65137009D02*
X50511905Y-65089390D01*
X50511905Y-65089390D02*
X50464286Y-65041771D01*
X50464286Y-65041771D02*
X50416667Y-64946533D01*
X50416667Y-64946533D02*
X50416667Y-64851295D01*
X50416667Y-64851295D02*
X50464286Y-64756057D01*
X50464286Y-64756057D02*
X50511905Y-64708438D01*
X50511905Y-64708438D02*
X50607143Y-64660819D01*
X50607143Y-64660819D02*
X50845238Y-64660819D01*
X50845238Y-64660819D02*
X50988095Y-64708438D01*
X51321429Y-64660819D02*
X51559524Y-65660819D01*
X51559524Y-65660819D02*
X51750000Y-64946533D01*
X51750000Y-64946533D02*
X51940476Y-65660819D01*
X51940476Y-65660819D02*
X52178572Y-64660819D01*
X52511905Y-64756057D02*
X52559524Y-64708438D01*
X52559524Y-64708438D02*
X52654762Y-64660819D01*
X52654762Y-64660819D02*
X52892857Y-64660819D01*
X52892857Y-64660819D02*
X52988095Y-64708438D01*
X52988095Y-64708438D02*
X53035714Y-64756057D01*
X53035714Y-64756057D02*
X53083333Y-64851295D01*
X53083333Y-64851295D02*
X53083333Y-64946533D01*
X53083333Y-64946533D02*
X53035714Y-65089390D01*
X53035714Y-65089390D02*
X52464286Y-65660819D01*
X52464286Y-65660819D02*
X53083333Y-65660819D01*
X69476667Y-65613200D02*
X69619524Y-65660819D01*
X69619524Y-65660819D02*
X69857619Y-65660819D01*
X69857619Y-65660819D02*
X69952857Y-65613200D01*
X69952857Y-65613200D02*
X70000476Y-65565580D01*
X70000476Y-65565580D02*
X70048095Y-65470342D01*
X70048095Y-65470342D02*
X70048095Y-65375104D01*
X70048095Y-65375104D02*
X70000476Y-65279866D01*
X70000476Y-65279866D02*
X69952857Y-65232247D01*
X69952857Y-65232247D02*
X69857619Y-65184628D01*
X69857619Y-65184628D02*
X69667143Y-65137009D01*
X69667143Y-65137009D02*
X69571905Y-65089390D01*
X69571905Y-65089390D02*
X69524286Y-65041771D01*
X69524286Y-65041771D02*
X69476667Y-64946533D01*
X69476667Y-64946533D02*
X69476667Y-64851295D01*
X69476667Y-64851295D02*
X69524286Y-64756057D01*
X69524286Y-64756057D02*
X69571905Y-64708438D01*
X69571905Y-64708438D02*
X69667143Y-64660819D01*
X69667143Y-64660819D02*
X69905238Y-64660819D01*
X69905238Y-64660819D02*
X70048095Y-64708438D01*
X70381429Y-64660819D02*
X70619524Y-65660819D01*
X70619524Y-65660819D02*
X70810000Y-64946533D01*
X70810000Y-64946533D02*
X71000476Y-65660819D01*
X71000476Y-65660819D02*
X71238572Y-64660819D01*
X71524286Y-64660819D02*
X72143333Y-64660819D01*
X72143333Y-64660819D02*
X71810000Y-65041771D01*
X71810000Y-65041771D02*
X71952857Y-65041771D01*
X71952857Y-65041771D02*
X72048095Y-65089390D01*
X72048095Y-65089390D02*
X72095714Y-65137009D01*
X72095714Y-65137009D02*
X72143333Y-65232247D01*
X72143333Y-65232247D02*
X72143333Y-65470342D01*
X72143333Y-65470342D02*
X72095714Y-65565580D01*
X72095714Y-65565580D02*
X72048095Y-65613200D01*
X72048095Y-65613200D02*
X71952857Y-65660819D01*
X71952857Y-65660819D02*
X71667143Y-65660819D01*
X71667143Y-65660819D02*
X71571905Y-65613200D01*
X71571905Y-65613200D02*
X71524286Y-65565580D01*
X88476667Y-65613200D02*
X88619524Y-65660819D01*
X88619524Y-65660819D02*
X88857619Y-65660819D01*
X88857619Y-65660819D02*
X88952857Y-65613200D01*
X88952857Y-65613200D02*
X89000476Y-65565580D01*
X89000476Y-65565580D02*
X89048095Y-65470342D01*
X89048095Y-65470342D02*
X89048095Y-65375104D01*
X89048095Y-65375104D02*
X89000476Y-65279866D01*
X89000476Y-65279866D02*
X88952857Y-65232247D01*
X88952857Y-65232247D02*
X88857619Y-65184628D01*
X88857619Y-65184628D02*
X88667143Y-65137009D01*
X88667143Y-65137009D02*
X88571905Y-65089390D01*
X88571905Y-65089390D02*
X88524286Y-65041771D01*
X88524286Y-65041771D02*
X88476667Y-64946533D01*
X88476667Y-64946533D02*
X88476667Y-64851295D01*
X88476667Y-64851295D02*
X88524286Y-64756057D01*
X88524286Y-64756057D02*
X88571905Y-64708438D01*
X88571905Y-64708438D02*
X88667143Y-64660819D01*
X88667143Y-64660819D02*
X88905238Y-64660819D01*
X88905238Y-64660819D02*
X89048095Y-64708438D01*
X89381429Y-64660819D02*
X89619524Y-65660819D01*
X89619524Y-65660819D02*
X89810000Y-64946533D01*
X89810000Y-64946533D02*
X90000476Y-65660819D01*
X90000476Y-65660819D02*
X90238572Y-64660819D01*
X90762381Y-65089390D02*
X90667143Y-65041771D01*
X90667143Y-65041771D02*
X90619524Y-64994152D01*
X90619524Y-64994152D02*
X90571905Y-64898914D01*
X90571905Y-64898914D02*
X90571905Y-64851295D01*
X90571905Y-64851295D02*
X90619524Y-64756057D01*
X90619524Y-64756057D02*
X90667143Y-64708438D01*
X90667143Y-64708438D02*
X90762381Y-64660819D01*
X90762381Y-64660819D02*
X90952857Y-64660819D01*
X90952857Y-64660819D02*
X91048095Y-64708438D01*
X91048095Y-64708438D02*
X91095714Y-64756057D01*
X91095714Y-64756057D02*
X91143333Y-64851295D01*
X91143333Y-64851295D02*
X91143333Y-64898914D01*
X91143333Y-64898914D02*
X91095714Y-64994152D01*
X91095714Y-64994152D02*
X91048095Y-65041771D01*
X91048095Y-65041771D02*
X90952857Y-65089390D01*
X90952857Y-65089390D02*
X90762381Y-65089390D01*
X90762381Y-65089390D02*
X90667143Y-65137009D01*
X90667143Y-65137009D02*
X90619524Y-65184628D01*
X90619524Y-65184628D02*
X90571905Y-65279866D01*
X90571905Y-65279866D02*
X90571905Y-65470342D01*
X90571905Y-65470342D02*
X90619524Y-65565580D01*
X90619524Y-65565580D02*
X90667143Y-65613200D01*
X90667143Y-65613200D02*
X90762381Y-65660819D01*
X90762381Y-65660819D02*
X90952857Y-65660819D01*
X90952857Y-65660819D02*
X91048095Y-65613200D01*
X91048095Y-65613200D02*
X91095714Y-65565580D01*
X91095714Y-65565580D02*
X91143333Y-65470342D01*
X91143333Y-65470342D02*
X91143333Y-65279866D01*
X91143333Y-65279866D02*
X91095714Y-65184628D01*
X91095714Y-65184628D02*
X91048095Y-65137009D01*
X91048095Y-65137009D02*
X90952857Y-65089390D01*
X69610176Y-25201904D02*
X68610176Y-25201904D01*
X69610176Y-24630476D02*
X69038747Y-25059047D01*
X68610176Y-24630476D02*
X69181604Y-25201904D01*
X69416667Y-46533200D02*
X69559524Y-46580819D01*
X69559524Y-46580819D02*
X69797619Y-46580819D01*
X69797619Y-46580819D02*
X69892857Y-46533200D01*
X69892857Y-46533200D02*
X69940476Y-46485580D01*
X69940476Y-46485580D02*
X69988095Y-46390342D01*
X69988095Y-46390342D02*
X69988095Y-46295104D01*
X69988095Y-46295104D02*
X69940476Y-46199866D01*
X69940476Y-46199866D02*
X69892857Y-46152247D01*
X69892857Y-46152247D02*
X69797619Y-46104628D01*
X69797619Y-46104628D02*
X69607143Y-46057009D01*
X69607143Y-46057009D02*
X69511905Y-46009390D01*
X69511905Y-46009390D02*
X69464286Y-45961771D01*
X69464286Y-45961771D02*
X69416667Y-45866533D01*
X69416667Y-45866533D02*
X69416667Y-45771295D01*
X69416667Y-45771295D02*
X69464286Y-45676057D01*
X69464286Y-45676057D02*
X69511905Y-45628438D01*
X69511905Y-45628438D02*
X69607143Y-45580819D01*
X69607143Y-45580819D02*
X69845238Y-45580819D01*
X69845238Y-45580819D02*
X69988095Y-45628438D01*
X70321429Y-45580819D02*
X70559524Y-46580819D01*
X70559524Y-46580819D02*
X70750000Y-45866533D01*
X70750000Y-45866533D02*
X70940476Y-46580819D01*
X70940476Y-46580819D02*
X71178572Y-45580819D01*
X71988095Y-45580819D02*
X71797619Y-45580819D01*
X71797619Y-45580819D02*
X71702381Y-45628438D01*
X71702381Y-45628438D02*
X71654762Y-45676057D01*
X71654762Y-45676057D02*
X71559524Y-45818914D01*
X71559524Y-45818914D02*
X71511905Y-46009390D01*
X71511905Y-46009390D02*
X71511905Y-46390342D01*
X71511905Y-46390342D02*
X71559524Y-46485580D01*
X71559524Y-46485580D02*
X71607143Y-46533200D01*
X71607143Y-46533200D02*
X71702381Y-46580819D01*
X71702381Y-46580819D02*
X71892857Y-46580819D01*
X71892857Y-46580819D02*
X71988095Y-46533200D01*
X71988095Y-46533200D02*
X72035714Y-46485580D01*
X72035714Y-46485580D02*
X72083333Y-46390342D01*
X72083333Y-46390342D02*
X72083333Y-46152247D01*
X72083333Y-46152247D02*
X72035714Y-46057009D01*
X72035714Y-46057009D02*
X71988095Y-46009390D01*
X71988095Y-46009390D02*
X71892857Y-45961771D01*
X71892857Y-45961771D02*
X71702381Y-45961771D01*
X71702381Y-45961771D02*
X71607143Y-46009390D01*
X71607143Y-46009390D02*
X71559524Y-46057009D01*
X71559524Y-46057009D02*
X71511905Y-46152247D01*
X62638748Y-25201904D02*
X61638748Y-25201904D01*
X62638748Y-24630476D02*
X62067319Y-25059047D01*
X61638748Y-24630476D02*
X62210176Y-25201904D01*
X80067319Y-25201904D02*
X79067319Y-25201904D01*
X80067319Y-24630476D02*
X79495890Y-25059047D01*
X79067319Y-24630476D02*
X79638747Y-25201904D01*
X76581605Y-25201904D02*
X75581605Y-25201904D01*
X76581605Y-24630476D02*
X76010176Y-25059047D01*
X75581605Y-24630476D02*
X76153033Y-25201904D01*
X49292319Y-34488094D02*
X48292319Y-34488094D01*
X48292319Y-34488094D02*
X48292319Y-34249999D01*
X48292319Y-34249999D02*
X48339938Y-34107142D01*
X48339938Y-34107142D02*
X48435176Y-34011904D01*
X48435176Y-34011904D02*
X48530414Y-33964285D01*
X48530414Y-33964285D02*
X48720890Y-33916666D01*
X48720890Y-33916666D02*
X48863747Y-33916666D01*
X48863747Y-33916666D02*
X49054223Y-33964285D01*
X49054223Y-33964285D02*
X49149461Y-34011904D01*
X49149461Y-34011904D02*
X49244700Y-34107142D01*
X49244700Y-34107142D02*
X49292319Y-34249999D01*
X49292319Y-34249999D02*
X49292319Y-34488094D01*
X49292319Y-33440475D02*
X49292319Y-33249999D01*
X49292319Y-33249999D02*
X49244700Y-33154761D01*
X49244700Y-33154761D02*
X49197080Y-33107142D01*
X49197080Y-33107142D02*
X49054223Y-33011904D01*
X49054223Y-33011904D02*
X48863747Y-32964285D01*
X48863747Y-32964285D02*
X48482795Y-32964285D01*
X48482795Y-32964285D02*
X48387557Y-33011904D01*
X48387557Y-33011904D02*
X48339938Y-33059523D01*
X48339938Y-33059523D02*
X48292319Y-33154761D01*
X48292319Y-33154761D02*
X48292319Y-33345237D01*
X48292319Y-33345237D02*
X48339938Y-33440475D01*
X48339938Y-33440475D02*
X48387557Y-33488094D01*
X48387557Y-33488094D02*
X48482795Y-33535713D01*
X48482795Y-33535713D02*
X48720890Y-33535713D01*
X48720890Y-33535713D02*
X48816128Y-33488094D01*
X48816128Y-33488094D02*
X48863747Y-33440475D01*
X48863747Y-33440475D02*
X48911366Y-33345237D01*
X48911366Y-33345237D02*
X48911366Y-33154761D01*
X48911366Y-33154761D02*
X48863747Y-33059523D01*
X48863747Y-33059523D02*
X48816128Y-33011904D01*
X48816128Y-33011904D02*
X48720890Y-32964285D01*
X46600204Y-30778571D02*
X46600204Y-30321428D01*
X46600204Y-30550000D02*
X47400204Y-30550000D01*
X47400204Y-30550000D02*
X47285919Y-30473809D01*
X47285919Y-30473809D02*
X47209728Y-30397619D01*
X47209728Y-30397619D02*
X47171633Y-30321428D01*
X66124462Y-25261904D02*
X65124462Y-25261904D01*
X66124462Y-24690476D02*
X65553033Y-25119047D01*
X65124462Y-24690476D02*
X65695890Y-25261904D01*
X31416667Y-46533200D02*
X31559524Y-46580819D01*
X31559524Y-46580819D02*
X31797619Y-46580819D01*
X31797619Y-46580819D02*
X31892857Y-46533200D01*
X31892857Y-46533200D02*
X31940476Y-46485580D01*
X31940476Y-46485580D02*
X31988095Y-46390342D01*
X31988095Y-46390342D02*
X31988095Y-46295104D01*
X31988095Y-46295104D02*
X31940476Y-46199866D01*
X31940476Y-46199866D02*
X31892857Y-46152247D01*
X31892857Y-46152247D02*
X31797619Y-46104628D01*
X31797619Y-46104628D02*
X31607143Y-46057009D01*
X31607143Y-46057009D02*
X31511905Y-46009390D01*
X31511905Y-46009390D02*
X31464286Y-45961771D01*
X31464286Y-45961771D02*
X31416667Y-45866533D01*
X31416667Y-45866533D02*
X31416667Y-45771295D01*
X31416667Y-45771295D02*
X31464286Y-45676057D01*
X31464286Y-45676057D02*
X31511905Y-45628438D01*
X31511905Y-45628438D02*
X31607143Y-45580819D01*
X31607143Y-45580819D02*
X31845238Y-45580819D01*
X31845238Y-45580819D02*
X31988095Y-45628438D01*
X32321429Y-45580819D02*
X32559524Y-46580819D01*
X32559524Y-46580819D02*
X32750000Y-45866533D01*
X32750000Y-45866533D02*
X32940476Y-46580819D01*
X32940476Y-46580819D02*
X33178572Y-45580819D01*
X33988095Y-45914152D02*
X33988095Y-46580819D01*
X33750000Y-45533200D02*
X33511905Y-46247485D01*
X33511905Y-46247485D02*
X34130952Y-46247485D01*
X55667319Y-25201904D02*
X54667319Y-25201904D01*
X55667319Y-24630476D02*
X55095890Y-25059047D01*
X54667319Y-24630476D02*
X55238747Y-25201904D01*
X59153033Y-25201904D02*
X58153033Y-25201904D01*
X59153033Y-24630476D02*
X58581604Y-25059047D01*
X58153033Y-24630476D02*
X58724461Y-25201904D01*
X97116667Y-37107200D02*
X97259524Y-37154819D01*
X97259524Y-37154819D02*
X97497619Y-37154819D01*
X97497619Y-37154819D02*
X97592857Y-37107200D01*
X97592857Y-37107200D02*
X97640476Y-37059580D01*
X97640476Y-37059580D02*
X97688095Y-36964342D01*
X97688095Y-36964342D02*
X97688095Y-36869104D01*
X97688095Y-36869104D02*
X97640476Y-36773866D01*
X97640476Y-36773866D02*
X97592857Y-36726247D01*
X97592857Y-36726247D02*
X97497619Y-36678628D01*
X97497619Y-36678628D02*
X97307143Y-36631009D01*
X97307143Y-36631009D02*
X97211905Y-36583390D01*
X97211905Y-36583390D02*
X97164286Y-36535771D01*
X97164286Y-36535771D02*
X97116667Y-36440533D01*
X97116667Y-36440533D02*
X97116667Y-36345295D01*
X97116667Y-36345295D02*
X97164286Y-36250057D01*
X97164286Y-36250057D02*
X97211905Y-36202438D01*
X97211905Y-36202438D02*
X97307143Y-36154819D01*
X97307143Y-36154819D02*
X97545238Y-36154819D01*
X97545238Y-36154819D02*
X97688095Y-36202438D01*
X98021429Y-36154819D02*
X98259524Y-37154819D01*
X98259524Y-37154819D02*
X98450000Y-36440533D01*
X98450000Y-36440533D02*
X98640476Y-37154819D01*
X98640476Y-37154819D02*
X98878572Y-36154819D01*
X99164286Y-36154819D02*
X99830952Y-36154819D01*
X99830952Y-36154819D02*
X99402381Y-37154819D01*
D12*
G04 #@! TO.C,SW1*
X25765000Y-66095000D02*
X39735000Y-66095000D01*
X25765000Y-80065000D02*
X25765000Y-66095000D01*
X39735000Y-66095000D02*
X39735000Y-80065000D01*
X39735000Y-80065000D02*
X25765000Y-80065000D01*
G04 #@! TO.C,D10*
X44087500Y-23200000D02*
X44087500Y-28200000D01*
X44687500Y-28800000D02*
X44087500Y-28200000D01*
X44687500Y-28800000D02*
X48087500Y-28800000D01*
X48087500Y-23200000D02*
X44087500Y-23200000D01*
X48087500Y-23200000D02*
X48087500Y-28800000D01*
G04 #@! TO.C,D3*
X70841071Y-25980000D02*
X70841071Y-26630000D01*
X70841071Y-31520000D02*
X70841071Y-30870000D01*
X71961071Y-27230000D02*
X69721071Y-27230000D01*
X71961071Y-27350000D02*
X69721071Y-27350000D01*
X71961071Y-27470000D02*
X69721071Y-27470000D01*
X71961071Y-26630000D02*
X69721071Y-26630000D01*
X69721071Y-30870000D01*
X71961071Y-30870000D01*
X71961071Y-26630000D01*
G04 #@! TO.C,SW5*
X44765000Y-47015000D02*
X58735000Y-47015000D01*
X44765000Y-60985000D02*
X44765000Y-47015000D01*
X58735000Y-47015000D02*
X58735000Y-60985000D01*
X58735000Y-60985000D02*
X44765000Y-60985000D01*
G04 #@! TO.C,SW2*
X44765000Y-66095000D02*
X58735000Y-66095000D01*
X44765000Y-80065000D02*
X44765000Y-66095000D01*
X58735000Y-66095000D02*
X58735000Y-80065000D01*
X58735000Y-80065000D02*
X44765000Y-80065000D01*
D13*
G04 #@! TO.C,U1*
X16669000Y-33741272D02*
X16669000Y-25746000D01*
X17169000Y-25246000D02*
X18079000Y-25246000D01*
D14*
X18079000Y-22765000D02*
X18079000Y-36735000D01*
D13*
X18079000Y-22765000D02*
X18079000Y-36735000D01*
X18079000Y-34245000D02*
X17168728Y-34241272D01*
X37129000Y-20860000D02*
X19984000Y-20860000D01*
X37129000Y-38640000D02*
X19984000Y-38640000D01*
X39034000Y-36735000D02*
X39034000Y-22765000D01*
X16669000Y-25746000D02*
G75*
G02*
X17169000Y-25246000I500000J0D01*
G01*
X17168728Y-34241272D02*
G75*
G02*
X16669001Y-33741272I291J500018D01*
G01*
X18079000Y-22765000D02*
G75*
G02*
X19984000Y-20860000I1905000J0D01*
G01*
X19984000Y-38640000D02*
G75*
G02*
X18079000Y-36735000I1J1905001D01*
G01*
X37129000Y-20860000D02*
G75*
G02*
X39034000Y-22765000I0J-1905000D01*
G01*
X39034000Y-36735000D02*
G75*
G02*
X37129000Y-38640000I-1905001J1D01*
G01*
D15*
X18572000Y-38700000D02*
G75*
G02*
X18068000Y-38700000I-252000J0D01*
G01*
X18068000Y-38700000D02*
G75*
G02*
X18572000Y-38700000I252000J0D01*
G01*
X19452000Y-37557000D02*
G75*
G02*
X18948000Y-37557000I-252000J0D01*
G01*
X18948000Y-37557000D02*
G75*
G02*
X19452000Y-37557000I252000J0D01*
G01*
D12*
G04 #@! TO.C,SW3*
X63825000Y-66095000D02*
X77795000Y-66095000D01*
X63825000Y-80065000D02*
X63825000Y-66095000D01*
X77795000Y-66095000D02*
X77795000Y-80065000D01*
X77795000Y-80065000D02*
X63825000Y-80065000D01*
G04 #@! TO.C,SW8*
X82825000Y-66095000D02*
X96795000Y-66095000D01*
X82825000Y-80065000D02*
X82825000Y-66095000D01*
X96795000Y-66095000D02*
X96795000Y-80065000D01*
X96795000Y-80065000D02*
X82825000Y-80065000D01*
G04 #@! TO.C,D4*
X67355357Y-25980000D02*
X67355357Y-26630000D01*
X67355357Y-31520000D02*
X67355357Y-30870000D01*
X68475357Y-27230000D02*
X66235357Y-27230000D01*
X68475357Y-27350000D02*
X66235357Y-27350000D01*
X68475357Y-27470000D02*
X66235357Y-27470000D01*
X68475357Y-26630000D02*
X66235357Y-26630000D01*
X66235357Y-30870000D01*
X68475357Y-30870000D01*
X68475357Y-26630000D01*
G04 #@! TO.C,SW6*
X63765000Y-47015000D02*
X77735000Y-47015000D01*
X63765000Y-60985000D02*
X63765000Y-47015000D01*
X77735000Y-47015000D02*
X77735000Y-60985000D01*
X77735000Y-60985000D02*
X63765000Y-60985000D01*
G04 #@! TO.C,D6*
X60383929Y-25980000D02*
X60383929Y-26630000D01*
X60383929Y-31520000D02*
X60383929Y-30870000D01*
X61503929Y-27230000D02*
X59263929Y-27230000D01*
X61503929Y-27350000D02*
X59263929Y-27350000D01*
X61503929Y-27470000D02*
X59263929Y-27470000D01*
X61503929Y-26630000D02*
X59263929Y-26630000D01*
X59263929Y-30870000D01*
X61503929Y-30870000D01*
X61503929Y-26630000D01*
G04 #@! TO.C,D1*
X77812500Y-25980000D02*
X77812500Y-26630000D01*
X77812500Y-31520000D02*
X77812500Y-30870000D01*
X78932500Y-27230000D02*
X76692500Y-27230000D01*
X78932500Y-27350000D02*
X76692500Y-27350000D01*
X78932500Y-27470000D02*
X76692500Y-27470000D01*
X78932500Y-26630000D02*
X76692500Y-26630000D01*
X76692500Y-30870000D01*
X78932500Y-30870000D01*
X78932500Y-26630000D01*
G04 #@! TO.C,D2*
X74326786Y-25980000D02*
X74326786Y-26630000D01*
X74326786Y-31520000D02*
X74326786Y-30870000D01*
X75446786Y-27230000D02*
X73206786Y-27230000D01*
X75446786Y-27350000D02*
X73206786Y-27350000D01*
X75446786Y-27470000D02*
X73206786Y-27470000D01*
X75446786Y-26630000D02*
X73206786Y-26630000D01*
X73206786Y-30870000D01*
X75446786Y-30870000D01*
X75446786Y-26630000D01*
G04 #@! TO.C,D9*
X44087500Y-30950000D02*
X44087500Y-35950000D01*
X44687500Y-36550000D02*
X44087500Y-35950000D01*
X44687500Y-36550000D02*
X48087500Y-36550000D01*
X48087500Y-30950000D02*
X44087500Y-30950000D01*
X48087500Y-30950000D02*
X48087500Y-36550000D01*
G04 #@! TO.C,D5*
X63869643Y-26040000D02*
X63869643Y-26690000D01*
X63869643Y-31580000D02*
X63869643Y-30930000D01*
X64989643Y-27290000D02*
X62749643Y-27290000D01*
X64989643Y-27410000D02*
X62749643Y-27410000D01*
X64989643Y-27530000D02*
X62749643Y-27530000D01*
X64989643Y-26690000D02*
X62749643Y-26690000D01*
X62749643Y-30930000D01*
X64989643Y-30930000D01*
X64989643Y-26690000D01*
G04 #@! TO.C,SW4*
X25765000Y-47015000D02*
X39735000Y-47015000D01*
X25765000Y-60985000D02*
X25765000Y-47015000D01*
X39735000Y-47015000D02*
X39735000Y-60985000D01*
X39735000Y-60985000D02*
X25765000Y-60985000D01*
G04 #@! TO.C,D8*
X53412500Y-25980000D02*
X53412500Y-26630000D01*
X53412500Y-31520000D02*
X53412500Y-30870000D01*
X54532500Y-27230000D02*
X52292500Y-27230000D01*
X54532500Y-27350000D02*
X52292500Y-27350000D01*
X54532500Y-27470000D02*
X52292500Y-27470000D01*
X54532500Y-26630000D02*
X52292500Y-26630000D01*
X52292500Y-30870000D01*
X54532500Y-30870000D01*
X54532500Y-26630000D01*
G04 #@! TO.C,D7*
X56898214Y-25980000D02*
X56898214Y-26630000D01*
X56898214Y-31520000D02*
X56898214Y-30870000D01*
X58018214Y-27230000D02*
X55778214Y-27230000D01*
X58018214Y-27350000D02*
X55778214Y-27350000D01*
X58018214Y-27470000D02*
X55778214Y-27470000D01*
X58018214Y-26630000D02*
X55778214Y-26630000D01*
X55778214Y-30870000D01*
X58018214Y-30870000D01*
X58018214Y-26630000D01*
G04 #@! TO.C,SW7*
X87650000Y-23600000D02*
X91750000Y-23600000D01*
X87650000Y-26000000D02*
X87650000Y-23600000D01*
X87650000Y-30800000D02*
X87650000Y-28200000D01*
X87650000Y-35400000D02*
X87650000Y-33000000D01*
X91750000Y-35400000D02*
X87650000Y-35400000D01*
X95750000Y-23600000D02*
X99850000Y-23600000D01*
X95750000Y-35400000D02*
X99850000Y-35400000D01*
X99850000Y-35400000D02*
X99850000Y-23600000D01*
X100950000Y-33600000D02*
X101250000Y-33300000D01*
X101250000Y-33300000D02*
X101550000Y-33600000D01*
X101550000Y-33600000D02*
X100950000Y-33600000D01*
X96750000Y-29500000D02*
G75*
G02*
X90750000Y-29500000I-3000000J0D01*
G01*
X90750000Y-29500000D02*
G75*
G02*
X96750000Y-29500000I3000000J0D01*
G01*
G04 #@! TD*
M02*
