G04 #@! TF.GenerationSoftware,KiCad,Pcbnew,9.0.7*
G04 #@! TF.CreationDate,2026-02-11T18:03:55+01:00*
G04 #@! TF.ProjectId,Schematic.kicad_pcb_2,53636865-6d61-4746-9963-2e6b69636164,rev?*
G04 #@! TF.SameCoordinates,Original*
G04 #@! TF.FileFunction,Soldermask,Top*
G04 #@! TF.FilePolarity,Negative*
%FSLAX46Y46*%
G04 Gerber Fmt 4.6, Leading zero omitted, Abs format (unit mm)*
G04 Created by KiCad (PCBNEW 9.0.7) date 2026-02-11 18:03:55*
%MOMM*%
%LPD*%
G01*
G04 APERTURE LIST*
G04 Aperture macros list*
%AMRoundRect*
0 Rectangle with rounded corners*
0 $1 Rounding radius*
0 $2 $3 $4 $5 $6 $7 $8 $9 X,Y pos of 4 corners*
0 Add a 4 corners polygon primitive as box body*
4,1,4,$2,$3,$4,$5,$6,$7,$8,$9,$2,$3,0*
0 Add four circle primitives for the rounded corners*
1,1,$1+$1,$2,$3*
1,1,$1+$1,$4,$5*
1,1,$1+$1,$6,$7*
1,1,$1+$1,$8,$9*
0 Add four rect primitives between the rounded corners*
20,1,$1+$1,$2,$3,$4,$5,0*
20,1,$1+$1,$4,$5,$6,$7,0*
20,1,$1+$1,$6,$7,$8,$9,0*
20,1,$1+$1,$8,$9,$2,$3,0*%
G04 Aperture macros list end*
%ADD10C,1.700000*%
%ADD11C,4.000000*%
%ADD12C,2.200000*%
%ADD13C,3.200000*%
%ADD14R,0.850000X1.600000*%
%ADD15RoundRect,0.250000X-0.550000X0.550000X-0.550000X-0.550000X0.550000X-0.550000X0.550000X0.550000X0*%
%ADD16C,1.600000*%
%ADD17RoundRect,0.152400X-0.609600X1.063600X-0.609600X-1.063600X0.609600X-1.063600X0.609600X1.063600X0*%
%ADD18C,1.524000*%
%ADD19RoundRect,0.152400X0.609600X-1.063600X0.609600X1.063600X-0.609600X1.063600X-0.609600X-1.063600X0*%
%ADD20O,2.200000X1.600000*%
%ADD21C,2.100000*%
%ADD22R,2.000000X2.000000*%
%ADD23C,2.000000*%
%ADD24R,3.200000X2.000000*%
G04 APERTURE END LIST*
D10*
G04 #@! TO.C,SW1*
X27670000Y-73080000D03*
D11*
X32750000Y-73080000D03*
D10*
X37830000Y-73080000D03*
D12*
X35290000Y-68000000D03*
X28940000Y-70540000D03*
G04 #@! TD*
D13*
G04 #@! TO.C,REF\u002A\u002A*
X100300000Y-59900000D03*
G04 #@! TD*
D14*
G04 #@! TO.C,D10*
X46962500Y-24250000D03*
X45212500Y-24250000D03*
X45212500Y-27750000D03*
X46962500Y-27750000D03*
G04 #@! TD*
D15*
G04 #@! TO.C,D3*
X70841071Y-24940000D03*
D16*
X70841071Y-32560000D03*
G04 #@! TD*
D10*
G04 #@! TO.C,SW5*
X46670000Y-54000000D03*
D11*
X51750000Y-54000000D03*
D10*
X56830000Y-54000000D03*
D12*
X54290000Y-48920000D03*
X47940000Y-51460000D03*
G04 #@! TD*
D10*
G04 #@! TO.C,SW2*
X46670000Y-73080000D03*
D11*
X51750000Y-73080000D03*
D10*
X56830000Y-73080000D03*
D12*
X54290000Y-68000000D03*
X47940000Y-70540000D03*
G04 #@! TD*
D17*
G04 #@! TO.C,U1*
X21000000Y-38205000D03*
D18*
X21000000Y-37370000D03*
D17*
X23540000Y-38205000D03*
D18*
X23540000Y-37370000D03*
D17*
X26080000Y-38205000D03*
D18*
X26080000Y-37370000D03*
D17*
X28620000Y-38205000D03*
D18*
X28620000Y-37370000D03*
D17*
X31160000Y-38205000D03*
D18*
X31160000Y-37370000D03*
D17*
X33700000Y-38205000D03*
D18*
X33700000Y-37370000D03*
D17*
X36240000Y-38205000D03*
D18*
X36240000Y-37370000D03*
X36240000Y-22130000D03*
D19*
X36240000Y-21295000D03*
D18*
X33700000Y-22130000D03*
D19*
X33700000Y-21295000D03*
D18*
X31160000Y-22130000D03*
D19*
X31160000Y-21295000D03*
D18*
X28620000Y-22130000D03*
D19*
X28620000Y-21295000D03*
D18*
X26080000Y-22130000D03*
D19*
X26080000Y-21295000D03*
D18*
X23540000Y-22130000D03*
D19*
X23540000Y-21295000D03*
D18*
X21000000Y-22130000D03*
D19*
X21000000Y-21295000D03*
G04 #@! TD*
D10*
G04 #@! TO.C,SW3*
X65730000Y-73080000D03*
D11*
X70810000Y-73080000D03*
D10*
X75890000Y-73080000D03*
D12*
X73350000Y-68000000D03*
X67000000Y-70540000D03*
G04 #@! TD*
D10*
G04 #@! TO.C,SW8*
X84730000Y-73080000D03*
D11*
X89810000Y-73080000D03*
D10*
X94890000Y-73080000D03*
D12*
X92350000Y-68000000D03*
X86000000Y-70540000D03*
G04 #@! TD*
D15*
G04 #@! TO.C,D4*
X67355357Y-24940000D03*
D16*
X67355357Y-32560000D03*
G04 #@! TD*
D10*
G04 #@! TO.C,SW6*
X65670000Y-54000000D03*
D11*
X70750000Y-54000000D03*
D10*
X75830000Y-54000000D03*
D12*
X73290000Y-48920000D03*
X66940000Y-51460000D03*
G04 #@! TD*
D15*
G04 #@! TO.C,D6*
X60383929Y-24940000D03*
D16*
X60383929Y-32560000D03*
G04 #@! TD*
D15*
G04 #@! TO.C,D1*
X77812500Y-24940000D03*
D16*
X77812500Y-32560000D03*
G04 #@! TD*
D15*
G04 #@! TO.C,D2*
X74326786Y-24940000D03*
D16*
X74326786Y-32560000D03*
G04 #@! TD*
D13*
G04 #@! TO.C,REF\u002A\u002A*
X43100000Y-41000000D03*
G04 #@! TD*
D14*
G04 #@! TO.C,D9*
X46962500Y-32000000D03*
X45212500Y-32000000D03*
X45212500Y-35500000D03*
X46962500Y-35500000D03*
G04 #@! TD*
D15*
G04 #@! TO.C,D5*
X63869643Y-25000000D03*
D16*
X63869643Y-32620000D03*
G04 #@! TD*
D10*
G04 #@! TO.C,SW4*
X27670000Y-54000000D03*
D11*
X32750000Y-54000000D03*
D10*
X37830000Y-54000000D03*
D12*
X35290000Y-48920000D03*
X28940000Y-51460000D03*
G04 #@! TD*
D15*
G04 #@! TO.C,D8*
X53412500Y-24940000D03*
D16*
X53412500Y-32560000D03*
G04 #@! TD*
D15*
G04 #@! TO.C,D7*
X56898214Y-24940000D03*
D16*
X56898214Y-32560000D03*
G04 #@! TD*
D20*
G04 #@! TO.C,SW7*
X98250000Y-29500000D03*
D21*
X93750000Y-29500000D03*
D22*
X101250000Y-32000000D03*
D23*
X101250000Y-27000000D03*
X101250000Y-29500000D03*
D24*
X93750000Y-35100000D03*
X93750000Y-23900000D03*
D23*
X86750000Y-27000000D03*
X86750000Y-32000000D03*
G04 #@! TD*
D13*
G04 #@! TO.C,REF\u002A\u002A*
X21500000Y-81200000D03*
G04 #@! TD*
M02*
